<svg xmlns="http://www.w3.org/2000/svg" width="251.156" height="243.763" viewBox="0 0 251.156 243.763">
  <g id="Hidden-cuate" transform="translate(-36.47 -49.97)">
    <g id="freepik--background-complete--inject-6" transform="translate(45.421 49.97)">
      <rect id="Rectangle_446" data-name="Rectangle 446" width="17.097" height="7.226" transform="translate(26.793 18.141) rotate(180)" fill="#ebebeb"/>
      <rect id="Rectangle_447" data-name="Rectangle 447" width="17.097" height="7.226" transform="translate(36.33 9.027) rotate(180)" fill="#ebebeb"/>
      <path id="Path_4561" data-name="Path 4561" d="M51.888,52.864,60.37,52.7l4.293-.065c1.437,0,2.88,0,4.323-.035h.258v.264l.035,7.226v.293h-.293l-8.546-.041c-2.851,0-5.7-.065-8.546-.094H51.73V60.09c0-1.226.053-2.446.082-3.648Zm0,0,.082,3.648c0,1.173.065,2.393.076,3.578l-.158-.164c2.851,0,5.7-.094,8.546-.094l8.552-.035-.293.293V52.864l.264.258c-1.414,0-2.821,0-4.235-.029l-4.246-.065Z" transform="translate(-51.73 -51.057)" fill="#ebebeb"/>
      <path id="Path_4562" data-name="Path 4562" d="M377.888,62.238l8.481-.164,4.3-.065c1.437-.029,2.88,0,4.317-.029h.264v.264l.029,7.226v.293h-.293l-8.546-.035c-2.851,0-5.7-.07-8.552-.1h-.158V69.47c0-1.226.053-2.44.076-3.648Zm0,0,.088,3.648c0,1.173.065,2.393.076,3.578l-.164-.158c2.851-.035,5.7-.094,8.552-.1l8.546-.035-.293.293.035-7.226.258.264c-1.408,0-2.815,0-4.229-.035L386.5,62.4Z" transform="translate(-186.52 -54.936)" fill="#ebebeb"/>
      <rect id="Rectangle_448" data-name="Rectangle 448" width="17.097" height="7.226" transform="translate(17.256 155.285) rotate(180)" fill="#ebebeb"/>
      <rect id="Rectangle_449" data-name="Rectangle 449" width="17.097" height="7.226" transform="translate(232.426 158.487) rotate(180)" fill="#ebebeb"/>
      <path id="Path_4563" data-name="Path 4563" d="M402.468,292.148l8.481-.158,4.3-.07c1.437,0,2.88,0,4.317-.029h.264v.264l.029,7.226v.293h-.293l-8.546-.035c-2.851,0-5.7-.065-8.552-.1h-.158v-.158c0-1.226.053-2.44.076-3.648Zm0,0,.088,3.648c0,1.2.064,2.393.076,3.578l-.164-.158c2.851-.029,5.7-.094,8.552-.1l8.546-.035-.293.293.035-7.226.258.264c-1.408,0-2.815,0-4.229-.035l-4.252-.065Z" transform="translate(-196.683 -149.996)" fill="#ebebeb"/>
      <rect id="Rectangle_450" data-name="Rectangle 450" width="17.097" height="7.226" transform="translate(135.953 41.615) rotate(180)" fill="#ebebeb"/>
      <path id="Path_4564" data-name="Path 4564" d="M238,131.149l8.616-.164,4.252-.065c1.414-.029,2.821,0,4.229-.035l-.258.264-.035-7.226.293.293-8.546-.035c-2.851,0-5.7-.065-8.552-.094l.164-.164c0,1.173-.053,2.375-.076,3.578Zm0,0-.082-3.578c0-1.173-.065-2.422-.076-3.648v-.158H238c2.851,0,5.7-.094,8.552-.094l8.546-.041h.3v.293l-.029,7.226v.264H255.1c-1.437,0-2.88,0-4.317-.035l-4.3-.065Z" transform="translate(-128.68 -80.426)" fill="#ebebeb"/>
      <path id="Path_4565" data-name="Path 4565" d="M226.238,355.708l8.616-.164,4.252-.065c1.414,0,2.815,0,4.229-.029l-.264.258-.029-7.244.293.293-8.552-.041c-2.845,0-5.7-.064-8.546-.094l.158-.158c0,1.173-.047,2.375-.076,3.578Zm0,0-.082-3.578c-.029-1.2-.065-2.422-.076-3.642v-.158h.164c2.851-.029,5.7-.094,8.546-.094l8.552-.035h.293v.3l-.041,7.208v.264h-.258c-1.443,0-2.886,0-4.317-.035l-4.3-.065Z" transform="translate(-123.818 -173.278)" fill="#ebebeb"/>
      <path id="Path_4566" data-name="Path 4566" d="M327.51,352.374l54.307,4.692,3.1-36.318-54.3-4.7Z" transform="translate(-165.756 -159.985)" fill="#fff"/>
      <path id="Path_4567" data-name="Path 4567" d="M327.914,377.824l-.8-.07.07-.8.44.035-.035.37.364.029Z" transform="translate(-165.59 -185.165)" fill="#dbdbdb"/>
      <path id="Path_4568" data-name="Path 4568" d="M381.5,382.693l-1.173-.106.041-.44,1.173.106Zm-2.346-.205-1.173-.106.035-.434,1.173.1Zm-2.346-.205-1.173-.1.041-.44,1.173.1Zm-2.346-.205-1.173-.1.035-.44,1.173.1Zm-2.346-.205-1.173-.1.035-.44,1.173.106Zm-2.346-.2-1.173-.106.041-.44,1.173.106Zm-2.346-.205-1.173-.106.035-.44,1.173.106Zm-2.346-.205-1.173-.1.035-.44,1.173.1Zm-2.346-.205-1.173-.1.041-.44,1.173.1Zm-2.346-.205-1.173-.1.035-.44,1.173.1Zm-2.346-.2-1.173-.106.041-.44,1.173.106Zm-2.346-.205-1.173-.106.041-.44,1.173.106Zm-2.346-.205-1.173-.1.035-.44,1.173.1ZM351,380.036l-1.173-.1.041-.44,1.173.1Zm-2.346-.205-1.173-.1.035-.44,1.173.1Zm-2.346-.2-1.173-.106.035-.44,1.173.106Zm-2.346-.205-1.173-.106.041-.44,1.173.106Zm-2.346-.205-1.173-.106.035-.434,1.173.1Zm-2.346-.205-1.173-.1.041-.44,1.173.1Zm-2.346-.205-1.173-.1.041-.44,1.173.1Zm-2.346-.205-1.173-.1.035-.44,1.173.106Zm-2.346-.2-1.173-.106.041-.44,1.173.106Z" transform="translate(-167.224 -185.542)" fill="#dbdbdb"/>
      <path id="Path_4569" data-name="Path 4569" d="M419.874,385.795l-.8-.07.041-.44.364.035.029-.37.44.041Z" transform="translate(-203.613 -188.473)" fill="#dbdbdb"/>
      <path id="Path_4570" data-name="Path 4570" d="M420.422,359.864l-.422-.047.094-1.132.44.035Zm.194-2.264-.434-.041.094-1.132.44.041Zm.193-2.27-.434-.035.094-1.138.44.041Zm.194-2.27-.434-.035.094-1.132.44.035Zm.194-2.264-.434-.041.094-1.132.44.035Zm.194-2.27-.44-.035.1-1.138.44.041Zm.194-2.27-.434-.035.094-1.132.44.035Zm.176-2.276-.434-.041.094-1.132.44.035Zm.194-2.27-.434-.035.094-1.138.44.041Zm.194-2.27-.434-.035.094-1.132.44.035Zm.194-2.264-.434-.041L422,336l.44.035Zm.194-2.27-.434-.035.094-1.138.44.041Zm.194-2.27-.434-.035.094-1.132.44.035Zm.194-2.264-.434-.041.094-1.132.44.035Zm.194-2.27-.434-.035.094-1.138.44.041Z" transform="translate(-203.997 -164.484)" fill="#dbdbdb"/>
      <path id="Path_4571" data-name="Path 4571" d="M425.128,324.468l-.434-.035.029-.364-.364-.035.035-.434.8.065Z" transform="translate(-205.8 -163.107)" fill="#dbdbdb"/>
      <path id="Path_4572" data-name="Path 4572" d="M386.782,320.767l-1.173-.1.035-.44,1.173.1Zm-2.346-.205-1.173-.1.041-.44,1.173.1Zm-2.346-.205-1.173-.1.035-.44,1.173.1Zm-2.346-.205-1.173-.1.041-.44,1.173.106Zm-2.346-.2-1.173-.106.041-.44,1.173.106Zm-2.346-.205-1.173-.106.035-.434,1.173.1Zm-2.346-.205-1.173-.1.041-.44,1.173.1Zm-2.346-.205-1.173-.1.035-.44,1.173.1Zm-2.346-.205-1.173-.1.035-.44,1.173.106Zm-2.346-.2-1.173-.106.041-.44,1.173.106Zm-2.346-.205-1.173-.106.035-.434,1.173.1Zm-2.346-.205-1.173-.1.035-.44,1.173.1Zm-2.346-.205-1.173-.1.041-.44,1.173.1Zm-2.346-.205-1.173-.1.035-.44,1.173.106Zm-2.346-.2-1.173-.106.041-.44,1.173.106Zm-2.346-.205-1.173-.106-.2-.452,1.173.1Zm-2.346-.205-1.173-.106.035-.434,1.173.1Zm-2.346-.205-1.173-.1.041-.44,1.173.1Zm-2.346-.205-1.173-.1.035-.44,1.173.106Zm-2.346-.205-1.173-.1.035-.44,1.173.106Zm-2.346-.2-1.173-.106.041-.434,1.173.1Zm-2.346-.205-1.173-.106.035-.434,1.173.1Z" transform="translate(-169.407 -159.94)" fill="#dbdbdb"/>
      <path id="Path_4573" data-name="Path 4573" d="M332.78,316.485l-.44-.041.07-.8.8.07-.041.44-.364-.029Z" transform="translate(-167.753 -159.816)" fill="#dbdbdb"/>
      <path id="Path_4574" data-name="Path 4574" d="M327.83,351.872l-.44-.035.1-1.138.434.041Zm.194-2.27-.44-.035.1-1.138.434.041Zm.194-2.264-.44-.041.1-1.132.434.035Zm.194-2.27-.44-.035.1-1.138.434.041Zm.194-2.27-.44-.035.1-1.132.434.035Zm.194-2.264-.44-.041.1-1.132.434.035Zm.194-2.27-.44-.041.1-1.132.434.041Zm.194-2.27-.44-.035.1-1.138.434.041Zm.194-2.264-.44-.041.1-1.132.434.035Zm.194-2.27-.44-.041.1-1.132.434.041Zm.194-2.27-.44-.035.1-1.138.434.041Zm.194-2.27-.44-.035.1-1.132.434.035Zm.194-2.264-.44-.041.1-1.132.434.041Zm.194-2.27-.44-.035.1-1.138.434.041Zm.194-2.264-.44-.041.1-1.132.434.035Z" transform="translate(-165.706 -161.184)" fill="#dbdbdb"/>
      <path id="Path_4575" data-name="Path 4575" d="M331.69,352.036l49.8,4.305,2.71-31.8-49.8-4.305Z" transform="translate(-167.484 -161.718)" fill="#ebebeb"/>
      <path id="Path_4578" data-name="Path 4578" d="M141.4,122.267l70.5-15.649L198.48,58.47,127.99,74.113Z" transform="translate(-83.261 -53.484)" fill="#dbdbdb"/>
      <path id="Path_4579" data-name="Path 4579" d="M203.311,55.5l24.91-5.525,1.384,4.986L203.27,60.8Z" transform="translate(-114.387 -49.97)" fill="#dbdbdb"/>
      <path id="Path_4580" data-name="Path 4580" d="M147.605,123.008l70.49-15.649L213.35,60.29,142.86,75.933Z" transform="translate(-89.409 -54.237)" fill="#ebebeb"/>
      <path id="Path_4581" data-name="Path 4581" d="M219.078,57.505l24.91-5.525.487,4.874L218.14,62.7Z" transform="translate(-120.535 -50.801)" fill="#ebebeb"/>
      <path id="Path_4584" data-name="Path 4584" d="M378.986,267.5,336.55,251.067l21.1-54.477L389.156,208.8l6.909,14.611Z" transform="translate(-169.494 -110.592)" fill="#fff"/>
      <path id="Path_4585" data-name="Path 4585" d="M378.707,267.5l-1.1-.428.158-.411,1.1.428Zm.487-.657-.411-.158.422-1.091.411.158Zm-2.675-.194-1.1-.422.158-.411,1.1.422Zm-2.188-.815-1.1-.428.158-.4,1.1.422Zm-2.188-.85-1.1-.422.158-.411,1.1.422Zm7.871-.323-.4-.158.422-1.091.411.158Zm-10.083-.545-1.1-.428.158-.4,1.1.422Zm-2.188-.85-1.1-.422.158-.411,1.1.422Zm13.121-.792-.411-.158.422-1.091.411.158Zm-15.308-.053-1.1-.422.158-.411,1.1.422Zm-2.188-.85-1.1-.422.158-.411,1.1.422Zm-2.188-.845-1.1-.422.158-.411,1.1.422Zm20.529-.44-.411-.158.428-1.091.411.158Zm-22.716-.411-1.1-.422.158-.411,1.1.422Zm-2.188-.845-1.1-.422.158-.411,1.1.422Zm-2.164-.821-1.1-.428.158-.411,1.1.428Zm27.942-.088-.411-.158.422-1.091.411.158Zm-30.136-.792-1.1-.422.158-.411,1.1.422Zm-2.188-.845-1.1-.428.158-.411,1.1.428Zm33.163-.587-.411-.158.428-1.091.411.158Zm-35.35-.27-1.1-.422.158-.411,1.1.422Zm-2.188-.845-1.1-.428.158-.4,1.1.422Zm-2.188-.85-1.1-.422.158-.411,1.1.422Zm40.576-.223-.411-.158.422-1.091.411.158Zm-42.764-.622-1.1-.422.158-.411,1.1.422Zm-2.188-.85-1.1-.422.158-.411,1.1.422Zm45.8-.716-.411-.158.428-1.091.4.158Zm-47.984-.129-1.073-.416.164-.434.411.164h0l.663.258Zm-.076-1.76-.4-.158.422-1.1.411.164Zm48.911-.276-.411-.158.422-1.091.411.158Zm-48.061-1.912-.411-.158.422-1.1.411.164Zm48.905-.276-.411-.158.422-1.091.411.158Zm-48.061-1.912-.411-.158.428-1.1.411.164Zm48.911-.276-.411-.158.422-1.091.411.158Zm-48.06-1.912-.411-.158.422-1.1.411.164Zm48.905-.276-.411-.158.422-1.091.411.158Zm-48.061-1.912-.411-.158.428-1.1.411.164Zm48.911-.276-.411-.158.422-1.091.411.158Zm-48.055-1.93-.411-.158.422-1.1.411.164Zm48.905-.276-.411-.158.422-1.091.411.158Zm-48.061-1.895-.411-.158.422-1.1.411.164Zm48.911-.276-.411-.158.422-1.091.411.158ZM343,234.324l-.411-.158.422-1.1.411.164Zm48.905-.276-.411-.158.422-1.091.411.158Zm-48.061-1.912-.411-.158.422-1.1.411.164Zm48.905-.276-.411-.158.428-1.091.411.158Zm-48.055-1.912-.411-.158.422-1.1.411.164Zm48.905-.276-.411-.158.422-1.091.411.158Zm-48.061-1.912-.411-.158.422-1.1.411.164Zm48.905-.276-.411-.158.428-1.091.411.158Zm-48.055-1.912-.411-.158.422-1.1.411.164Zm48.905-.276-.411-.158.422-1.091.411.158Zm-48.06-1.912-.411-.158.422-1.1.411.164Zm48.342-.252-.5-1.062.4-.188.5,1.062ZM348.066,221.2l-.4-.158.422-1.1.411.158Zm46.495-.188-.5-1.062.4-.188.5,1.062Zm-45.632-2.018-.411-.158.411-1.091.411.158Zm44.641-.123-.5-1.056.4-.188.5,1.056Zm-43.8-2.065-.411-.158.428-1.1.411.158Zm42.817-.053-.5-1.062.4-.188.5,1.062Zm-1-2.123-.5-1.062.4-.188.5,1.062Zm-40.94,0-.411-.158.422-1.1.411.158Zm39.925-2.117-.5-1.062.4-.188.5,1.062Zm-39.092-.082-.411-.158.428-1.1.4.158Zm38.09-2.041-.5-1.062.4-.188.5,1.062Zm-37.239-.147-.411-.158.422-1.1.411.158Zm36.125-1.613-1.1-.422.164-.411,1.091.422Zm-35.28-.587-.411-.158.428-1.1.4.158Zm33.092-.27-1.1-.428.164-.4,1.091.422Zm-2.188-.85-1.1-.422.164-.411,1.091.422Zm-2.188-.845-1.1-.422.164-.411,1.091.422Zm-27.866-.223-.411-.158.422-1.1.411.158Zm25.678-.628-1.1-.422.164-.411,1.091.422Zm-2.188-.845-1.1-.422.164-.411,1.091.422Zm-22.658-.716-.411-.158.422-1.1.411.158Zm20.458-.135-1.1-.422.164-.411,1.091.422Zm-2.188-.845-1.1-.422.164-.411,1.091.422Zm-2.188-.85-1.1-.422.164-.411,1.091.428Zm-15.25-.358-.411-.158.422-1.1.411.164Zm13.044-.487-1.1-.422.164-.411,1.091.422Zm-2.17-.845-1.1-.428.164-.411,1.091.428Zm-2.188-.85-1.1-.422.164-.411,1.091.422Zm-7.824,0-.411-.158.422-1.1.411.164Zm5.637-.839-1.1-.428.164-.411,1.091.428Zm-2.188-.85-1.1-.393.164-.411,1.091.422Zm-2.6-.5-.411-.158.328-.85.651.252-.158.411-.241-.094Z" transform="translate(-169.291 -110.39)" fill="#dbdbdb"/>
      <path id="Path_4586" data-name="Path 4586" d="M423.408,217.4l6.909,14.611-10.927-4.235Z" transform="translate(-203.745 -119.197)" fill="#dbdbdb"/>
    </g>
    <g id="freepik--Shadow--inject-6" transform="translate(59.961 279.692)">
      <ellipse id="Ellipse_89" data-name="Ellipse 89" cx="101.752" cy="7.021" rx="101.752" ry="7.021" transform="translate(0 0)" fill="#ebebeb"/>
    </g>
    <g id="freepik--Plant--inject-6" transform="translate(233.903 188.934)">
      <path id="Path_4589" data-name="Path 4589" d="M402.009,300.382a23.836,23.836,0,0,1-.469,9.179,25.267,25.267,0,0,1-1.4,4.053c-.733,1.677-1.5,3.32-1.308,5.156.176.117-.434.1-.452-.082-4.909-2.792-11.2-3.3-14.98-7.871a15.686,15.686,0,0,1-3.12-7.625,23.431,23.431,0,0,1,.176-9.238,9.4,9.4,0,0,1,4.446-6.112,11.189,11.189,0,0,1,8.118-.364C398.5,289.162,401.229,295.08,402.009,300.382Z" transform="translate(-375.902 -286.895)" fill="#ff7642"/>
      <path id="Path_4590" data-name="Path 4590" d="M407.452,340.519c-.669-2.229-1.337-4.463-2.024-6.692-1.349-4.364-2.751-8.71-4.3-13q-1.39-3.859-2.933-7.625a46.561,46.561,0,0,1,.587-4.745c.411-1.9,1.009-3.742,1.56-5.6.035-.117-.147-.176-.193-.07-1.1,2.569-2.546,5.865-2.581,8.892q-1.795-4.288-3.854-8.446a36.2,36.2,0,0,1,.211-7.038.084.084,0,0,0-.164-.035,24.975,24.975,0,0,0-.481,6.211c-1.056-2.082-2.164-4.141-3.349-6.17-.106-.182-.358,0-.264.188,1.848,3.548,3.554,7.179,5.161,10.851a23.607,23.607,0,0,0-7.7-4.458c-.123-.041-.217.135-.088.188a28.029,28.029,0,0,1,8.323,5.508q1.724,4.035,3.3,8.135a25.582,25.582,0,0,0-11.338-6.053c-.141-.035-.176.176-.041.217,4.692,1.419,8.358,4.106,11.936,7.291.416,1.1.821,2.211,1.226,3.32q2.27,6.311,4.329,12.693.991,3.062,1.947,6.129c.686,2.2,1.226,4.528,2.117,6.651.088.205.452.158.4-.088C408.836,344.648,408.068,342.577,407.452,340.519Z" transform="translate(-378.829 -290.695)" fill="#263238"/>
      <path id="Path_4591" data-name="Path 4591" d="M406.76,302.526a12.147,12.147,0,0,0-1.76,4.4.035.035,0,0,0,.07,0,38.873,38.873,0,0,1,1.912-4.323C407.053,302.491,406.842,302.4,406.76,302.526Z" transform="translate(-386.277 -293.332)" fill="#263238"/>
      <path id="Path_4592" data-name="Path 4592" d="M389.937,318.958a12.868,12.868,0,0,0-4.4-1.478c-.041,0-.065.053,0,.07.71.293,1.455.5,2.17.774s1.419.587,2.147.862a.129.129,0,0,0,.088-.229Z" transform="translate(-378.211 -299.541)" fill="#263238"/>
      <path id="Path_4593" data-name="Path 4593" d="M387.8,298.381a8.625,8.625,0,0,0-1.419-.874.076.076,0,0,0-.082.123,8.113,8.113,0,0,0,1.4.9C387.786,298.609,387.874,298.457,387.8,298.381Z" transform="translate(-378.536 -291.28)" fill="#263238"/>
      <path id="Path_4594" data-name="Path 4594" d="M435.081,319.421c-3.519,1.05-7.091,2.018-10.622,3.056-.311.094-6.288-11.361-4.106-17.262a19.256,19.256,0,0,1,12.012-11.4c2.528-.856,5.631-1.578,8.294-.985a6.868,6.868,0,0,1,4.815,4.692c1.05,3.032.7,6.645.129,9.742a16.957,16.957,0,0,1-3.478,7.948A13.912,13.912,0,0,1,435.081,319.421Z" transform="translate(-392.428 -289.258)" fill="#ff7642"/>
      <path id="Path_4595" data-name="Path 4595" d="M439.779,313.494a46.61,46.61,0,0,1-6.933,2.727,29.569,29.569,0,0,0-4.628,1.677c1.5-3.331,3.132-6.587,4.868-9.819a15.757,15.757,0,0,0,6.411-3.308c.094-.088-.029-.217-.129-.147a32.4,32.4,0,0,1-6.047,3.032q.7-1.3,1.431-2.6c.135-.24-.2-.481-.358-.246a74.576,74.576,0,0,0-5.027,8.434,39.076,39.076,0,0,1-.364-7.73.053.053,0,0,0-.1,0,25.638,25.638,0,0,0,.088,8.493c-1.243,2.475-2.346,5.009-3.384,7.578-.4-1.543-.933-3.062-1.279-4.616a21.252,21.252,0,0,1-.51-6.8c0-.07-.088-.07-.1,0A23.925,23.925,0,0,0,425.2,322.65c-.587,1.548-1.173,3.1-1.672,4.651a92.539,92.539,0,0,0-4.692,24.529.153.153,0,0,0,.3,0,121.857,121.857,0,0,1,5.279-24.241q1.54-4.619,3.519-9.009c2.088-.616,4.164-1.455,6.217-2.164a19.518,19.518,0,0,0,5.73-2.81.077.077,0,0,0-.106-.111Z" transform="translate(-392 -294.217)" fill="#263238"/>
      <path id="Path_4596" data-name="Path 4596" d="M455.629,314.081c-2.164.768-4.211,1.848-6.376,2.628-.1.035-.041.194.065.17a14.477,14.477,0,0,0,6.393-2.675C455.782,314.145,455.7,314.028,455.629,314.081Z" transform="translate(-404.554 -298.13)" fill="#263238"/>
      <path id="Path_4597" data-name="Path 4597" d="M429.44,306.051c0-.117-.141-.182-.176-.065a11.112,11.112,0,0,0-.428,6.147.076.076,0,1,0,.153,0A34.561,34.561,0,0,1,429.44,306.051Z" transform="translate(-396.019 -294.763)" fill="#263238"/>
      <path id="Path_4598" data-name="Path 4598" d="M444.619,298.249a5.279,5.279,0,0,0-.938,3.39c0,.076.123.117.147.029.264-1.144.7-2.182,1.05-3.29a.147.147,0,0,0-.258-.129Z" transform="translate(-402.265 -291.565)" fill="#263238"/>
      <path id="Path_4599" data-name="Path 4599" d="M373.684,341.941c1.032,3.29,3.519,7.836,7.4,7.871,2.528,0,5.074-.276,7.625-.311,2.716-.041,5.437-.035,8.141.123.223,0-.323-8.124-6.845-12.088a19.831,19.831,0,0,0-6.135-1.912,28.18,28.18,0,0,0-7.25-.751c-1.5.059-2.745.375-3.279,1.906A8.872,8.872,0,0,0,373.684,341.941Z" transform="translate(-373.079 -306.728)" fill="#ff7642"/>
      <path id="Path_4600" data-name="Path 4600" d="M378.749,338.815c1.584.411,3.185.874,4.774,1.378a15.909,15.909,0,0,0-1.314-1.279,23.579,23.579,0,0,0-2.164-1.519c-.065-.041-.029-.158.053-.129a8.95,8.95,0,0,1,3.848,3.062c1.983.639,3.942,1.343,5.836,2.123a21.706,21.706,0,0,1,3.736,1.965,15.107,15.107,0,0,0-1.355-2.346A12.894,12.894,0,0,0,389,339.525a.1.1,0,0,1,.1-.17,9.261,9.261,0,0,1,5.085,5.513,21.9,21.9,0,0,1,3.7,3.361c4.317,4.9,7.713,11.426,7.725,18.077,0,.158-.252.205-.282.041a36.917,36.917,0,0,0-8.211-17.678c-.311-.364-.628-.7-.95-1.038a30.122,30.122,0,0,0-3.566-.264c-1.39,0-2.768.205-4.147.317-2.282.188-4.8.211-6.851-.933-.088-.053-.029-.211.07-.17,4.581,1.666,9.385-.446,13.971.546a21.38,21.38,0,0,0-6.769-4.364l-.422-.17c-2.933.352-6.035,1.12-8.9.164a.07.07,0,0,1,.035-.135c2.763.686,5.42-.182,8.147-.317-2.974-1.173-6-2.076-8.98-3.226C378.485,338.974,378.48,338.745,378.749,338.815Z" transform="translate(-375.341 -307.72)" fill="#263238"/>
      <path id="Path_4601" data-name="Path 4601" d="M376.624,344.837a38.749,38.749,0,0,0,4.276.328.029.029,0,0,1,0,.059,8.909,8.909,0,0,1-4.317-.276.059.059,0,1,1,.041-.111Z" transform="translate(-374.512 -310.85)" fill="#263238"/>
      <path id="Path_4602" data-name="Path 4602" d="M393.04,340a7.039,7.039,0,0,1,2.117,1.472.088.088,0,0,1-.106.141c-.364-.258-.733-.5-1.1-.745a11.011,11.011,0,0,1-1.032-.657C392.823,340.153,392.952,340,393.04,340Z" transform="translate(-381.268 -308.852)" fill="#263238"/>
      <path id="Path_4603" data-name="Path 4603" d="M432.413,350.717c-.053.106.106.211.164.094h0a.153.153,0,0,0,.106.065,63.57,63.57,0,0,0,7.965,1.39c2.159.194,4.645.317,6.528-.938,2.563-1.7,4.246-6.229,2.862-9.115-1.636-3.419-6.569-1.56-9.044-.346a18.183,18.183,0,0,0-8.581,8.851Z" transform="translate(-397.607 -308.959)" fill="#ff7642"/>
      <path id="Path_4604" data-name="Path 4604" d="M423.538,353.711a25.22,25.22,0,0,1,4.757-3.625,16.258,16.258,0,0,1,4.821-4.915c.094-.065.176.082.088.147a22.078,22.078,0,0,0-4.065,4.276,45.3,45.3,0,0,1,5.971-2.716,7.953,7.953,0,0,1,3.2-3.208s.065,0,.035.041a13.3,13.3,0,0,0-2.9,3.038c1.214-.452,2.44-.874,3.666-1.279.111-.035.152.129.047.17-2.182.856-4.411,1.76-6.569,2.786a25.127,25.127,0,0,0,7.953,0,.059.059,0,1,1,0,.117,15.667,15.667,0,0,1-8.434.123,39.291,39.291,0,0,0-3.977,2.235,10.12,10.12,0,0,1,3.238.264,24.778,24.778,0,0,0,5.683.645.065.065,0,0,1,0,.129c-3.3.587-6.417-.933-9.684-.54a24.951,24.951,0,0,0-3.4,2.78,25.385,25.385,0,0,0-4.968,7c-1.372,2.8-2.123,5.766-3.232,8.663a.107.107,0,1,1-.205-.059C416.541,364.07,419.38,357.776,423.538,353.711Z" transform="translate(-390.645 -310.369)" fill="#263238"/>
      <path id="Path_4605" data-name="Path 4605" d="M446.1,346.214a3.748,3.748,0,0,1,.845-1.026,3.361,3.361,0,0,1,.974-.727.035.035,0,0,1,.035.053c-.27.3-.651.534-.938.827s-.54.639-.839.933a.048.048,0,1,1-.076-.059Z" transform="translate(-403.268 -310.696)" fill="#263238"/>
      <path id="Path_4606" data-name="Path 4606" d="M455.336,350c.487-.123,1-.117,1.5-.217a13.854,13.854,0,0,0,1.455-.44.06.06,0,1,1,.047.111,4.863,4.863,0,0,1-3,.7.076.076,0,1,1,0-.153Z" transform="translate(-407.058 -312.714)" fill="#263238"/>
      <path id="Path_4607" data-name="Path 4607" d="M405.99,376.19l.434,4.915L407.89,397.7h13l1.836-16.593.54-4.915Z" transform="translate(-386.687 -323.815)" fill="#37474f"/>
      <path id="Path_4608" data-name="Path 4608" d="M405.99,376.19l.434,4.915h16.3l.54-4.915Z" transform="translate(-386.687 -323.815)" fill="#263238"/>
      <rect id="Rectangle_454" data-name="Rectangle 454" width="19.848" height="3.988" transform="translate(37.867 55.02) rotate(180)" fill="#37474f"/>
    </g>
    <g id="freepik--Floor--inject-6" transform="translate(36.47 262.53)">
      <path id="Path_4613" data-name="Path 4613" d="M36.47,412.657l31.309-.141,31.309-.053,62.624-.094,62.624.094,31.309.053,31.309.141-31.309.147-31.309.053-62.624.094-62.624-.1L67.779,412.8Z" transform="translate(-36.47 -412.37)" fill="#263238"/>
    </g>
    <g id="freepik--Character--inject-6" transform="translate(43.918 79.164)">
      <path id="Path_4614" data-name="Path 4614" d="M82.387,143.435c-3.965,4.886-19.274,26.511-17.561,33.69,1.044,4.417,5.942,3.648,8.722,2.534,3.255-1.308,11.866-27.063,12.957-32.3C87.548,142.368,86.276,138.649,82.387,143.435Z" transform="translate(-55.587 -116.891)" fill="#f7a9a0"/>
      <path id="Path_4615" data-name="Path 4615" d="M82.387,143.435c-3.965,4.886-19.274,26.511-17.561,33.69,1.044,4.417,5.942,3.648,8.722,2.534,3.255-1.308,11.866-27.063,12.957-32.3C87.548,142.368,86.276,138.649,82.387,143.435Z" transform="translate(-55.587 -116.891)" fill="#455a64"/>
      <path id="Path_4616" data-name="Path 4616" d="M88.892,143.984a15.366,15.366,0,0,1-.346,2.716c-1.091,5.238-9.7,30.992-12.962,32.3a9.361,9.361,0,0,1-5.953.587L84.786,142.33l1.109-2.71.768,1.12Z" transform="translate(-57.629 -116.232)" fill="#37474f"/>
      <path id="Path_4617" data-name="Path 4617" d="M93.142,165.2s.088,5.818,1.109,7.379a8.236,8.236,0,0,0,2.241,1.4H128.41s1-3.678-.1-5.431c-3.349-5.337-10.7-14.7-23.8-24.787-4.921-3.789-11.144-4.516-12.81-.739-.944,2.158-5.126,12.487-4.364,16.845C88.009,163.709,93.142,165.2,93.142,165.2Z" transform="translate(-64.911 -116.607)" fill="#455a64"/>
      <path id="Path_4618" data-name="Path 4618" d="M104.647,178.584a29.574,29.574,0,0,1,4.264-.123c.71.041,1.408.111,2.112.2.346.047.7.076,1.05.111a4.623,4.623,0,0,0,1.1,0s.041.047,0,.053a7.52,7.52,0,0,1-1.026.182,7.319,7.319,0,0,1-1.015,0c-.716-.035-1.431-.106-2.147-.147-1.449-.082-2.892-.17-4.34-.147C104.589,178.707,104.583,178.589,104.647,178.584Z" transform="translate(-72.088 -132.279)" fill="#263238"/>
      <path id="Path_4619" data-name="Path 4619" d="M99.216,181.117a30.925,30.925,0,0,1,3.419-.839c.587-.106,1.173-.176,1.76-.235.276-.029.587-.047.839-.065s.622,0,.927-.029c0,0,.041.047,0,.053-.287.029-.587.111-.856.158l-.868.147-1.76.3c-1.173.182-2.311.381-3.461.587a.047.047,0,0,1,0-.076Z" transform="translate(-69.853 -132.907)" fill="#263238"/>
      <path id="Path_4620" data-name="Path 4620" d="M115.342,149.921c5.279,6.211,18.153,22.875,25.045,23.362,5.865.428,16.781-4.334,19.8-6.229,1.76-1.091-4.288-12.546-6.452-12.9s-10.816,3.226-12.434,3.443-15.033-9.291-22.018-13.009C110.473,139.856,111.2,145.024,115.342,149.921Z" transform="translate(-75.304 -117.512)" fill="#f7a9a0"/>
      <path id="Path_4621" data-name="Path 4621" d="M177.81,159.8a42.88,42.88,0,0,1,4.557-4.551c1.625-1.191,9.279-3.408,9.854-1.76.739,2.1-3.431,4.252-5.613,5.044,0,0,1.719,4.856-.938,7.038S177.81,159.8,177.81,159.8Z" transform="translate(-102.357 -121.721)" fill="#f7a9a0"/>
      <path id="Path_4622" data-name="Path 4622" d="M187.063,172.307c1.7-.176,9.431-1.689,11.49-2.587s7.789-3.924,7.255-5.572-2.276-.9-2.276-.9,2.217-1.66,1.531-3.267-3.367-.346-3.367-.346,2.153-1.871,1.355-3.431-3.279.164-3.279.164,2.047-1.619.85-2.622c-1.437-1.208-4.88,2.2-7.226,3.027-.534.188-11.068,3.027-11.068,3.027Z" transform="translate(-104.226 -121.967)" fill="#f7a9a0"/>
      <path id="Path_4623" data-name="Path 4623" d="M207.108,158.129c-2.534,2.5-4.106,3.156-7.5,3.906-.07,0-.059.117,0,.106,3.419-.428,5.472-.968,7.625-3.9C207.342,158.1,207.231,158.035,207.108,158.129Z" transform="translate(-111.349 -123.866)" fill="#263238"/>
      <path id="Path_4624" data-name="Path 4624" d="M209.992,163.594a19.046,19.046,0,0,1-8.059,4.147c-.053,0,0,.1,0,.088,3.519-.739,5.584-1.331,8.129-4.071C210.2,163.636,210.121,163.489,209.992,163.594Z" transform="translate(-112.322 -126.129)" fill="#263238"/>
      <path id="Path_4625" data-name="Path 4625" d="M212.292,170.171A16.593,16.593,0,0,1,204,173.69a.07.07,0,0,0,0,.135,11.977,11.977,0,0,0,8.329-3.584C212.509,170.106,212.474,170.042,212.292,170.171Z" transform="translate(-113.167 -128.834)" fill="#263238"/>
      <path id="Path_4626" data-name="Path 4626" d="M197.865,155c-.71,2.4-3.637,3.255-5.7,4.176a.205.205,0,0,0-.076.328c.586,2.082.8,5.2-.651,6.956a.053.053,0,0,0,.07.076c1.818-1.683,1.853-4.757,1.068-7,2.129-.909,5.027-1.895,5.308-4.534Z" transform="translate(-107.99 -122.591)" fill="#263238"/>
      <path id="Path_4627" data-name="Path 4627" d="M157.536,170.329l-9.519-16.534s-6.522,2.622-7.255,2.346c-6.733-2.587-17.414-10.61-21.93-12.986-7.555-3.971-9.1-.481-3.238,8.5,3.267,5.009,11.848,16.652,23.074,21.379C142.544,174.652,157.536,170.329,157.536,170.329Z" transform="translate(-75.157 -117.022)" fill="#455a64"/>
      <path id="Path_4628" data-name="Path 4628" d="M174.336,179.354c-.194-.434-.4-.856-.587-1.285-.416-.868-.839-1.724-1.261-2.587-.839-1.713-1.76-3.4-2.651-5.074-.516-.956-1-1.93-1.566-2.862a.047.047,0,0,0-.082.041c.364.88.809,1.76,1.214,2.6s.809,1.76,1.232,2.6c.845,1.713,1.724,3.4,2.622,5.091.252.469.487.956.762,1.419.141.235.258.481.4.716s.311.463.446.7h.047C174.7,180.252,174.529,179.794,174.336,179.354Z" transform="translate(-98.379 -127.771)" fill="#263238"/>
      <path id="Path_4629" data-name="Path 4629" d="M120.19,161.87c.751.98,1.513,1.947,2.346,2.886s1.6,1.877,2.428,2.792c1.654,1.824,3.367,3.6,5.173,5.279a64.093,64.093,0,0,0,5.66,4.727c1,.71,2,1.437,3.062,2.059s2.141,1.22,3.214,1.836a38.23,38.23,0,0,1-6.452-3.619,56.649,56.649,0,0,1-5.766-4.692,72.694,72.694,0,0,1-5.132-5.367A59.882,59.882,0,0,1,120.19,161.87Z" transform="translate(-78.533 -125.431)" fill="#263238"/>
      <path id="Path_4630" data-name="Path 4630" d="M120.23,164.24c.458.323.868.663,1.3,1l.633.51c.205.17.422.334.628.522a4.693,4.693,0,0,1-1.443-.8,4.828,4.828,0,0,1-1.114-1.226Z" transform="translate(-78.55 -126.411)" fill="#263238"/>
      <path id="Path_4631" data-name="Path 4631" d="M89.407,126.356c1.472,2.153,3.114,2.722,3.818,4.106a15.185,15.185,0,0,1,1.067,3.472s1.425-1.836,2.534-3.062c.915-1.009,4.182-1.7,6.018-2.686.962-.516,3.4-2.663,3.795-4.059.205-.716.862-9.08-1.672-11.009-2.346-1.8-5.5-2.047-8.669-1.76a6.129,6.129,0,0,0-5.478,3.854C89.343,118.6,87.988,124.268,89.407,126.356Z" transform="translate(-65.558 -104.505)" fill="#37474f"/>
      <path id="Path_4632" data-name="Path 4632" d="M102.752,134.783c-.152.587-3.109,4.551-5.9,4.387-.909-.053-.839-5.032-.839-5.032l-.076-.364-1.1-5.162,6.088-3.818.88-.5s.205,1.431.446,3.22l.035.252a.685.685,0,0,0,.041.287c.041.27.076.54.111.815s.053.4.07.622.047.434.07.651a33.6,33.6,0,0,1,.17,4.645Z" transform="translate(-68.052 -109.893)" fill="#f7a9a0"/>
      <path id="Path_4633" data-name="Path 4633" d="M94.84,128.613l.9,4.252a15.074,15.074,0,0,0,7-.141c0-.774-.076-1.689-.164-2.587a5.968,5.968,0,0,0-.065-.651c-.023-.217-.053-.416-.076-.622s-.076-.545-.111-.809a.727.727,0,0,0-.041-.293c-.041-.1,0-.17-.041-.258-.235-1.76-.44-3.214-.44-3.214l-.88.5Z" transform="translate(-68.052 -109.893)" fill="#263238"/>
      <path id="Path_4634" data-name="Path 4634" d="M107.074,111.668c1.613,9.121-3.666,11.144-5.637,11.461-1.76.311-7.9,1.173-10.446-7.748s1.173-12.534,5.226-13.49S105.461,102.553,107.074,111.668Z" transform="translate(-66.116 -100.532)" fill="#f7a9a0"/>
      <path id="Path_4635" data-name="Path 4635" d="M112.483,115.81a5.661,5.661,0,0,1-.587.176,1.079,1.079,0,0,1-.663.065.323.323,0,0,1-.188-.358.827.827,0,0,1,.622-.551,1.173,1.173,0,0,1,.868,0,.352.352,0,0,1-.053.669Z" transform="translate(-74.75 -106.076)" fill="#263238"/>
      <path id="Path_4636" data-name="Path 4636" d="M102.445,120.492c.217,0,.422-.035.639-.053a1.015,1.015,0,0,0,.639-.176.323.323,0,0,0,.053-.4.8.8,0,0,0-.774-.293,1.173,1.173,0,0,0-.8.323.352.352,0,0,0,.246.6Z" transform="translate(-71.053 -107.937)" fill="#263238"/>
      <path id="Path_4637" data-name="Path 4637" d="M104.583,122.27s-.041.035-.041.059c.106.628.117,1.361-.422,1.642v.035C104.812,123.818,104.783,122.845,104.583,122.27Z" transform="translate(-71.889 -109.058)" fill="#263238"/>
      <path id="Path_4638" data-name="Path 4638" d="M103.327,121.269c-1.021.059-.833,2.094.111,2.041S104.183,121.223,103.327,121.269Z" transform="translate(-71.278 -108.644)" fill="#263238"/>
      <path id="Path_4639" data-name="Path 4639" d="M102.3,121.509c-.17.129-.323.352-.54.393s-.452-.147-.633-.34H101.1c.029.387.217.774.639.8s.628-.358.692-.757C102.443,121.556,102.366,121.457,102.3,121.509Z" transform="translate(-70.64 -108.737)" fill="#263238"/>
      <path id="Path_4640" data-name="Path 4640" d="M111.654,121.142c0-.029.047,0,.047.053,0,.633.141,1.355.721,1.537v.035C111.712,122.7,111.566,121.74,111.654,121.142Z" transform="translate(-74.995 -108.587)" fill="#263238"/>
      <path id="Path_4641" data-name="Path 4641" d="M112.183,120c1.015-.129,1.2,1.906.264,2.024S111.333,120.09,112.183,120Z" transform="translate(-74.996 -108.115)" fill="#263238"/>
      <path id="Path_4642" data-name="Path 4642" d="M113.227,119.994c.176.094.352.276.545.27s.37-.24.493-.463h0c.047.387-.041.8-.411.915s-.616-.211-.745-.587C113.116,120.07,113.163,119.958,113.227,119.994Z" transform="translate(-75.606 -108.037)" fill="#263238"/>
      <path id="Path_4643" data-name="Path 4643" d="M104.767,131.914c.152.147.3.352.54.364a1.619,1.619,0,0,0,.675-.17l.029.035a.85.85,0,0,1-.8.358.674.674,0,0,1-.5-.557C104.7,131.908,104.744,131.9,104.767,131.914Z" transform="translate(-72.132 -113.042)" fill="#263238"/>
      <path id="Path_4644" data-name="Path 4644" d="M106.791,124.067a8.176,8.176,0,0,0,2.493-.164c.07,0,.111-.17.117-.24h0l-.235-1.279c.182.059,1.1.317,1.05.076a31.3,31.3,0,0,0-1.76-6.076.056.056,0,1,0-.106.035c.328,1.918,1,3.771,1.361,5.7a3.6,3.6,0,0,0-1.015-.147c-.059,0,.276,1.4.282,1.607a21.541,21.541,0,0,1-2.27.229C106.427,123.82,106.392,124.037,106.791,124.067Z" transform="translate(-72.871 -106.608)" fill="#263238"/>
      <path id="Path_4645" data-name="Path 4645" d="M90.789,114.6c1.507.082,1.76-3.079,1.76-3.079s3.062-.065,3.971-4.487a6.775,6.775,0,0,1-1.273,3.672s5.384-.7,7.549-5.279a11.474,11.474,0,0,1-1.683,3.156,6.305,6.305,0,0,0,3.308-2.546,13.469,13.469,0,0,0,1.76,3.285s-.44-9.431-9.162-8.211c0,0-5.466.493-7.332,4.868S90.789,114.6,90.789,114.6Z" transform="translate(-65.666 -100.265)" fill="#263238"/>
      <path id="Path_4646" data-name="Path 4646" d="M92.583,124.313s-2.27-2.7-3.519-1.865.639,4.874,2.223,5.308a1.566,1.566,0,0,0,2.018-1.026Z" transform="translate(-65.496 -109.065)" fill="#f7a9a0"/>
      <path id="Path_4647" data-name="Path 4647" d="M90.33,124.51v.041a4,4,0,0,1,2.258,2.287.862.862,0,0,0-1.308-.123s0,.065.035.059a.956.956,0,0,1,1.085.24,4.722,4.722,0,0,1,.587.809c.059.088.229,0,.182-.082h0C93.069,126.34,91.814,124.516,90.33,124.51Z" transform="translate(-66.187 -109.984)" fill="#263238"/>
      <path id="Path_4648" data-name="Path 4648" d="M83.425,124.183c1.76,1.953,5.455.745,6.082,1.613.375.516,2.047,3.326,1.953,4.141a16.311,16.311,0,0,0,3.924-2.158,21.221,21.221,0,0,1,6.217-3.519c1-.334,4.106-.528,4.745-3.314.956-4.258-.792-19.485-9.343-21.015-5.637-1.009-9.8,2.2-11.678,7.3-.587,1.548-1.062,4.211-1.689,6.452C82.451,117.883,81.466,122.024,83.425,124.183Zm4.692-10.558c.458-1.613,1.572-2.933,4.217-4.059,1.859-.78,7.1-2.411,9.971.176,1.912,1.719,1.443,8.305,1.255,9.021a7.942,7.942,0,0,1-3.7,4.012c-1.079.645-4.481,2.3-5.378,3.009a19.319,19.319,0,0,0-2.933,3.373,7.85,7.85,0,0,0-.311-3.818c-.7-1.378-2.786-2.7-3.807-4.047-.616-.868-.029-5.162.7-7.66Z" transform="translate(-62.872 -99.744)" fill="#455a64"/>
      <path id="Path_4649" data-name="Path 4649" d="M108.174,141.41l-1.331.639c-.44.223-.9.4-1.314.657-.827.516-1.631,1.079-2.428,1.654-.4.287-.809.587-1.226.833l-1.273.751a9,9,0,0,1-2.692,1.22,5.866,5.866,0,0,0,1.326-.628c.422-.252.833-.516,1.238-.792s.85-.522,1.255-.78.8-.587,1.208-.839a26.824,26.824,0,0,1,2.493-1.6A28.975,28.975,0,0,1,108.174,141.41Z" transform="translate(-69.321 -116.972)" fill="#263238"/>
      <path id="Path_4650" data-name="Path 4650" d="M95.406,146.476a16.424,16.424,0,0,0-1.173-2.147,10.618,10.618,0,0,0-.7-.98,2.85,2.85,0,0,0-.909-.78,2.112,2.112,0,0,1,1.079.628,5.625,5.625,0,0,1,.78.974,7.39,7.39,0,0,1,.587,1.109,4.692,4.692,0,0,1,.34,1.2Z" transform="translate(-67.134 -117.451)" fill="#263238"/>
      <path id="Path_4651" data-name="Path 4651" d="M112.04,142.981a3.519,3.519,0,0,0-.827.117,1.93,1.93,0,0,0-.733.352,3.572,3.572,0,0,1-1.59.587,4.65,4.65,0,0,0,.78-.3,5.447,5.447,0,0,0,.727-.4,1.865,1.865,0,0,1,.792-.334,2.439,2.439,0,0,1,.85-.023Z" transform="translate(-73.861 -117.61)" fill="#263238"/>
      <path id="Path_4652" data-name="Path 4652" d="M117.043,130.27a3.519,3.519,0,0,1-.053,1.285,2.933,2.933,0,0,1-.487,1.22,5.636,5.636,0,0,1-.9.933,7.24,7.24,0,0,1-1.026.757,13.261,13.261,0,0,0,1.7-1.848,4.018,4.018,0,0,0,.458-1.126,9.275,9.275,0,0,0,.3-1.22Z" transform="translate(-76.214 -112.366)" fill="#263238"/>
      <path id="Path_4653" data-name="Path 4653" d="M89.436,129.75a5.068,5.068,0,0,0-.047,1.6,6.306,6.306,0,0,0,.1.8,1.812,1.812,0,0,0,.264.7,7.038,7.038,0,0,0,1.026,1.208,8.551,8.551,0,0,1,1.073,1.226c-.381-.381-.8-.721-1.214-1.079a5.531,5.531,0,0,1-1.132-1.2,1.959,1.959,0,0,1-.305-.815,7.5,7.5,0,0,1-.065-.821A3.519,3.519,0,0,1,89.436,129.75Z" transform="translate(-65.692 -112.151)" fill="#263238"/>
      <path id="Path_4654" data-name="Path 4654" d="M101.7,146.27a35.989,35.989,0,0,1,.968,6.082c.111,1.431-.147,6.593-1.76,6.5s.8-3.554,1.1-6.288-.54-4.692-.727-6.294Z" transform="translate(-70.335 -118.981)" fill="#263238"/>
      <path id="Path_4655" data-name="Path 4655" d="M95.106,145.44a34.02,34.02,0,0,0-1.631,5.654c-.276,1.343-.639,6.276.892,6.376s-.34-3.466-.305-6.1,1.062-4.37,1.431-5.865Z" transform="translate(-67.386 -118.638)" fill="#263238"/>
      <path id="Path_4656" data-name="Path 4656" d="M68.254,193.055c-4.557-.587-2.856-9.261-.323-11.232,5.947-4.628,12.188-9.074,18.9-10.212,2.158-.37,9.742,8.153,7.038,10.962C89.551,187.085,75.727,194.041,68.254,193.055Z" transform="translate(-55.883 -129.454)" fill="#f7a9a0"/>
      <path id="Path_4657" data-name="Path 4657" d="M92.305,166.405a26.394,26.394,0,0,1,.587-10.194,27.9,27.9,0,0,1,3.912-7.625c1.607-2.07,9.66-9.713,11.555-7.8,1.719,1.76-6.035,7.42-6.035,7.42s7.314-6.452,9-3.965-7.936,7.725-7.936,7.725,7.666-6.452,9-3.619c1.009,2.123-7.431,7.379-7.431,7.379s6.628-5.484,7.754-3.343c1.249,2.346-6.235,7.707-6.235,7.707.716,3.156.786,7.924-1.566,9.625C104.341,170.112,92.305,166.405,92.305,166.405Z" transform="translate(-66.901 -116.588)" fill="#f7a9a0"/>
      <path id="Path_4658" data-name="Path 4658" d="M105,152.656c.833-.786,1.672-1.584,2.569-2.293s1.824-1.39,2.786-2.012a19.484,19.484,0,0,1,3.971-2.07,41.87,41.87,0,0,0-6.569,4.334c-.9.71-1.83,1.372-2.733,2.076C105,152.708,105,152.673,105,152.656Z" transform="translate(-72.253 -118.985)" fill="#263238"/>
      <path id="Path_4659" data-name="Path 4659" d="M109.265,158.981c1.1-.962,2.17-1.953,3.314-2.862s2.311-1.66,3.519-2.487c.088-.065.094,0,0,.076-1.173.868-2.182,1.76-3.343,2.651s-2.346,1.724-3.472,2.645C109.265,159.022,109.247,158.992,109.265,158.981Z" transform="translate(-74.013 -122.014)" fill="#263238"/>
      <path id="Path_4660" data-name="Path 4660" d="M112.052,165.333a34.077,34.077,0,0,1,5.443-4.106c.094-.059.088.035,0,.1-1.824,1.29-3.29,2.417-5.379,4.071C112.076,165.415,112.017,165.368,112.052,165.333Z" transform="translate(-75.164 -125.158)" fill="#263238"/>
      <path id="Path_4661" data-name="Path 4661" d="M122.67,149.209a3.976,3.976,0,0,0,.587-1.126,1.654,1.654,0,0,0-.07-1.173h-.035a1.367,1.367,0,0,1-.117,1.261,6.565,6.565,0,0,1-.651.991,8.578,8.578,0,0,1-.815.915,11.992,11.992,0,0,1-.9.827h.029a4.264,4.264,0,0,1,1.76-.587,1.759,1.759,0,0,1,.886.047,1.126,1.126,0,0,1,.686,1.331,2.2,2.2,0,0,1-.4.716,16.784,16.784,0,0,1-1.173,1.46c-.24.252-.481.5-.733.745s-.522.457-.757.71c0,0,.047.059.065.047.235-.088,1.924-.921,2.716-.733a1.015,1.015,0,0,1,.821.839,2.059,2.059,0,0,1-.287,1.267,15.366,15.366,0,0,1-1.32,1.889s0,.041.035,0a20.3,20.3,0,0,0,1.455-1.83,2,2,0,0,0,.364-1.343,1.238,1.238,0,0,0-.739-1,2.059,2.059,0,0,0-1.314.053,14.309,14.309,0,0,0-1.513.645c.188-.141,1.05-.921,1.3-1.173a15,15,0,0,0,1.349-1.572,1.537,1.537,0,0,0,.311-1.648,1.4,1.4,0,0,0-1.437-.727,3.637,3.637,0,0,0-1.32.44c.111-.088.229-.176.334-.276A6.828,6.828,0,0,0,122.67,149.209Z" transform="translate(-78.732 -119.246)" fill="#263238"/>
      <path id="Path_4662" data-name="Path 4662" d="M115.24,147.956a14.866,14.866,0,0,1,1.449-1.044,11.052,11.052,0,0,1,1.572-.868,2.874,2.874,0,0,1,1.8-.3,1.49,1.49,0,0,1,.8.475,1.173,1.173,0,0,1,.246.862,1.232,1.232,0,0,0-1.091-1.12,3.085,3.085,0,0,0-1.642.346C117.31,146.789,116.272,147.4,115.24,147.956Z" transform="translate(-76.487 -118.749)" fill="#263238"/>
      <path id="Path_4663" data-name="Path 4663" d="M80.011,174.32l10.7,13.995s-19.983,8.106-23.614,5.76c-2.639-1.707-2.933-6.106-.587-9.912C68.145,181.534,80.011,174.32,80.011,174.32Z" transform="translate(-55.68 -130.579)" fill="#455a64"/>
      <path id="Path_4664" data-name="Path 4664" d="M93.923,189.612q-.387-.587-.792-1.173-.809-1.173-1.631-2.346c-1.085-1.566-2.223-3.1-3.378-4.622-.651-.862-1.279-1.76-1.977-2.592a.042.042,0,0,0-.07.047c.493.821,1.056,1.6,1.59,2.4s1.056,1.6,1.607,2.387q1.636,2.346,3.349,4.639c.317.428.622.874.962,1.29.176.211.328.44.51.651s.375.4.545.622h.041C94.421,190.45,94.192,190.022,93.923,189.612Z" transform="translate(-64.425 -132.456)" fill="#263238"/>
      <path id="Path_4665" data-name="Path 4665" d="M82.877,174.678l-.352-.393h.047l-2.886,1.936-2.9,1.918c-1.93,1.273-3.848,2.557-5.719,3.93a28.7,28.7,0,0,1,2.645-2.27c.915-.716,1.871-1.378,2.833-2.029s1.947-1.261,2.933-1.853,2.006-1.173,3.044-1.7h0v.029Z" transform="translate(-58.224 -130.537)" fill="#263238"/>
      <path id="Path_4666" data-name="Path 4666" d="M71.62,184.93a1.76,1.76,0,0,1,.534-.457,3.619,3.619,0,0,1,.628-.3,4.446,4.446,0,0,1,.657-.2,3.932,3.932,0,0,1,.692-.094,8.171,8.171,0,0,1-1.249.587l-.628.235A5.69,5.69,0,0,0,71.62,184.93Z" transform="translate(-58.451 -134.532)" fill="#263238"/>
      <path id="Path_4667" data-name="Path 4667" d="M49.791,424.572c1.355.422,39.831-.493,41.268-1.461.587-.358.751-5.971.786-12.763v-.211c0-1.4-.9-24.857-.9-24.857l-25.151.528,1.226,24.634v.416s-14.569,6.939-16.042,8.17S48.436,424.161,49.791,424.572Z" transform="translate(-49.168 -217.804)" fill="#f7a9a0"/>
      <path id="Path_4668" data-name="Path 4668" d="M91.82,433.474c-.082,5.191-.293,9.091-.757,9.385-1.443.968-39.914,1.883-41.268,1.461s-.264-4.305,1.2-5.531c.9-.751,6.657-3.619,11.027-5.748-2.933,1.6-7.59,5.865,9.2,3.766C81.585,435.5,88.137,434.272,91.82,433.474Z" transform="translate(-49.172 -237.551)" fill="#263238"/>
      <path id="Path_4669" data-name="Path 4669" d="M71.08,432.523a16.766,16.766,0,0,1,15.156,2.968" transform="translate(-58.228 -237.057)" fill="#263238"/>
      <path id="Path_4670" data-name="Path 4670" d="M114.784,197.578s-13.156,66.055-14.077,70.929c-.152.786,3.314,27.268,3.519,42.013a18,18,0,0,1-2.774,10.077L75.375,321.77s-2.856-3.865-2.933-7.836c-.2-12.751,2.305-39.151,3.2-46.577,1.173-9.748,16.077-69.8,16.077-69.8Z" transform="translate(-58.787 -140.188)" fill="#263238"/>
      <path id="Path_4671" data-name="Path 4671" d="M102.244,399.08c-4.164.059-2.968,0-7.126.082-2.035.053-15.408.387-17.3.768a.041.041,0,0,0,0,.082c1.912.252,15.279-.317,17.309-.4,4.159-.182,2.933-.176,7.115-.4a.065.065,0,0,0,0-.123Z" transform="translate(-60.998 -223.51)" fill="#37474f"/>
      <path id="Path_4672" data-name="Path 4672" d="M114.769,270.812A99.52,99.52,0,0,1,116.575,260q1.044-5.508,2.088-11.009,2.068-10.9,4.106-21.8c1.578-8.211,3.824-16.235,5.484-24.429.041-.188.317-.1.287.088-2.575,14.57-5.994,28.922-8.751,43.462q-1.044,5.508-2.088,11.009c-.675,3.578-1.437,7.15-2.018,10.745a29.843,29.843,0,0,0-.4,5.648c.047,1.76.235,3.549.393,5.326.34,3.719.686,7.443,1.009,11.144q.534,6.141,1.062,12.282c.352,4.164.745,8.335.95,12.5a.047.047,0,0,1-.094,0c-.98-7.343-1.56-14.757-2.258-22.136q-.528-5.578-1.038-11.144A65.53,65.53,0,0,1,114.769,270.812Z" transform="translate(-76.256 -142.293)" fill="#37474f"/>
      <path id="Path_4673" data-name="Path 4673" d="M110,197.59l8.211,60.912c3.912-19.725,12.112-60.912,12.112-60.912Z" transform="translate(-74.32 -140.2)" fill="#37474f"/>
      <path id="Path_4674" data-name="Path 4674" d="M126.671,426.48c1.4.252,39.48-5.279,40.793-6.452.51-.422,0-6.018-.757-12.763l-.029-.211c-.158-1.39-3.9-24.564-3.9-24.564l-24.9,3.56,4.188,24.306.07.416s-13.625,8.645-14.939,10.047S125.281,426.234,126.671,426.48Z" transform="translate(-80.885 -216.65)" fill="#f7a9a0"/>
      <path id="Path_4675" data-name="Path 4675" d="M167.084,430.47c.545,5.167.809,9.062.381,9.385-1.314,1.132-39.4,6.686-40.793,6.452s-.774-4.247.528-5.642c.8-.845,6.17-4.393,10.253-7.038-2.745,1.936-6.821,6.739,9.59,2.622C157.171,433.714,163.523,431.713,167.084,430.47Z" transform="translate(-80.886 -236.488)" fill="#263238"/>
      <path id="Path_4676" data-name="Path 4676" d="M145.61,434.906a16.786,16.786,0,0,1,15.408,1.114" transform="translate(-89.044 -237.751)" fill="#263238"/>
      <path id="Path_4677" data-name="Path 4677" d="M131.5,324.058l25.326-2.815s2.469-6.651.95-12.974c-3.208-13.332-12.317-33.825-12.98-36.172-1-3.584-3.208-32.447-5.355-50.289,0,0,4.076-9.66-3.554-24.247H105.26s2.047,13.883,5.56,22.687c0,0-.651-.5,3.478,1.76,0,0,2.534,45.333,4.387,53.914,1.525,7.085,4.194,29.79,7.355,41.263C127.155,321.266,131.5,324.058,131.5,324.058Z" transform="translate(-72.36 -140.188)" fill="#263238"/>
      <path id="Path_4678" data-name="Path 4678" d="M173.094,398.929c-4.147.381-2.933.211-7.1.645-2.024.211-15.332,1.607-17.185,2.135-.041,0-.029.082,0,.082,1.924.1,15.2-1.531,17.221-1.76,4.106-.51,2.933-.411,7.038-.968C173.182,399.035,173.17,398.918,173.094,398.929Z" transform="translate(-90.356 -223.447)" fill="#37474f"/>
      <path id="Path_4679" data-name="Path 4679" d="M112.583,235.2a50.648,50.648,0,0,1,7.965,3.713.091.091,0,1,1-.076.164c-2.68-1.173-5.42-2.258-8.036-3.554a.177.177,0,0,1,.147-.323Z" transform="translate(-75.285 -155.744)" fill="#37474f"/>
      <path id="Path_4680" data-name="Path 4680" d="M111.166,203.766c0-.094.17-.111.17,0,0,3.185.182,5.988.452,8.962.123,1.384,1.238,9.021,3.631,8.464.4-.094.587-.487.674-1.091a9.7,9.7,0,0,0-.323-2.346c-.264-1.6-.481-3.208-.616-4.821a43.45,43.45,0,0,1,.1-9.033.076.076,0,0,1,.152,0,82.891,82.891,0,0,0,.727,12.476c.305,1.983,1.3,4.974-.774,5.279s-3.484-4.692-3.742-6.065A45.878,45.878,0,0,1,111.166,203.766Z" transform="translate(-74.723 -142.722)" fill="#37474f"/>
      <path id="Path_4681" data-name="Path 4681" d="M118.087,233.749a12.9,12.9,0,0,1,.534,1.584,3.566,3.566,0,0,1,.229,1.3.094.094,0,0,1-.17.035,4.627,4.627,0,0,1-.557-1.267c-.182-.487-.375-.974-.54-1.466a.27.27,0,0,1,.5-.188Z" transform="translate(-77.451 -155.085)" fill="#37474f"/>
      <path id="Path_4682" data-name="Path 4682" d="M153.892,200.02a25.708,25.708,0,0,1,3.361,9.279,28.506,28.506,0,0,1-.323,9.924,22.083,22.083,0,0,0-.446,5.824c.141,1.988.411,3.977.633,5.959q.651,5.836,1.3,11.672c.862,7.748,1.648,15.514,2.669,23.238a95.152,95.152,0,0,0,2.129,11.256c.944,3.66,2.059,7.273,3.179,10.88,2.305,7.443,4.628,14.886,6.845,22.353.282.938.551,1.871.815,2.809,0,.076-.094.1-.117.029-2.516-7.338-4.733-14.786-7.038-22.189-2.27-7.232-4.581-14.446-5.76-21.954-.587-3.818-1.009-7.672-1.449-11.514l-1.32-11.666c-.434-3.848-.88-7.7-1.308-11.549-.211-1.947-.428-3.895-.639-5.865a40.772,40.772,0,0,1-.4-5.607,43.492,43.492,0,0,1,.809-5.5,25.57,25.57,0,0,0,.293-5.1,26.476,26.476,0,0,0-2.375-9.895c-.346-.768-.54-1.56-.956-2.293C153.669,199.967,153.792,199.814,153.892,200.02Z" transform="translate(-92.405 -141.164)" fill="#37474f"/>
      <path id="Path_4683" data-name="Path 4683" d="M138.524,202.269c.493,1.3,1.05,2.569,1.648,3.818a9.525,9.525,0,0,0,2.041,3.091,7.625,7.625,0,0,0,3.1,1.572,17.977,17.977,0,0,0,2.006.44,13.963,13.963,0,0,1,2.035.37.141.141,0,0,1,0,.264,9.146,9.146,0,0,1-2.194.059,13.225,13.225,0,0,1-2.094-.287,7.513,7.513,0,0,1-3.39-1.73,9.061,9.061,0,0,1-2.076-3.378,21.981,21.981,0,0,1-1.238-4.17.088.088,0,0,1,.164-.047Z" transform="translate(-86.046 -142.116)" fill="#37474f"/>
    </g>
    <g id="freepik--Folder--inject-6" transform="translate(82.308 85.901)">
      <path id="Path_4684" data-name="Path 4684" d="M119.828,264.271H261.283l-5.208-97.781H114.62Z" transform="translate(-114.62 -134.078)" fill="#ff7642"/>
      <path id="Path_4685" data-name="Path 4685" d="M268.014,149.23h49.978l.54,10.124H265.68Z" transform="translate(-177.078 -126.942)" fill="#ff7642"/>
      <g id="Group_7637" data-name="Group 7637" transform="translate(0 22.288)" opacity="0.1">
        <path id="Path_4686" data-name="Path 4686" d="M119.828,264.271H261.283l-5.208-97.781H114.62Z" transform="translate(-114.62 -156.366)"/>
        <path id="Path_4687" data-name="Path 4687" d="M268.014,149.23h49.978l.54,10.124H265.68Z" transform="translate(-177.078 -149.23)"/>
      </g>
      <rect id="Rectangle_462" data-name="Rectangle 462" width="71.141" height="2.88" transform="translate(119.522 30.855) rotate(133.69)" fill="#fff"/>
      <rect id="Rectangle_463" data-name="Rectangle 463" width="71.141" height="2.88" transform="translate(124.772 35.873) rotate(133.69)" fill="#fff"/>
      <rect id="Rectangle_464" data-name="Rectangle 464" width="71.141" height="2.88" transform="translate(130.022 40.891) rotate(133.69)" fill="#fff"/>
      <rect id="Rectangle_465" data-name="Rectangle 465" width="71.141" height="2.88" transform="translate(135.277 45.914) rotate(133.69)" fill="#fff"/>
      <rect id="Rectangle_466" data-name="Rectangle 466" width="71.141" height="2.88" transform="translate(140.537 50.928) rotate(133.69)" fill="#fff"/>
      <rect id="Rectangle_467" data-name="Rectangle 467" width="71.141" height="2.88" transform="translate(145.787 55.946) rotate(133.69)" fill="#fff"/>
      <rect id="Rectangle_468" data-name="Rectangle 468" width="71.141" height="2.88" transform="translate(151.041 60.963) rotate(133.69)" fill="#fff"/>
      <path id="Path_4695" data-name="Path 4695" d="M175.16,215.519l54.553-6.434L198.076,175.33Z" transform="translate(-139.651 -137.733)" fill="#ebebeb"/>
      <path id="Path_4696" data-name="Path 4696" d="M138.71,229.334l45.034-5.314L158.388,202.6Z" transform="translate(-124.58 -149.008)" fill="#dbdbdb"/>
      <path id="Path_4697" data-name="Path 4697" d="M123.68,268.319H265.14l10.91-92.039H134.59Z" transform="translate(-118.366 -138.126)" fill="#ff7642"/>
      <path id="Path_4698" data-name="Path 4698" d="M297.35,160.03h49.979l-1.126,9.531H293.35Z" transform="translate(-188.519 -131.407)" fill="#ff7642"/>
      <circle id="Ellipse_93" data-name="Ellipse 93" cx="7.443" cy="7.443" r="7.443" transform="translate(46.532 85.687)" fill="#263238"/>
      <circle id="Ellipse_94" data-name="Ellipse 94" cx="7.443" cy="7.443" r="7.443" transform="translate(105.373 85.687)" fill="#263238"/>
      <path id="Path_4867" data-name="Path 4867" d="M385.313,333.639l-.411-.78c-.035-.07-3.883-7.179-11.619-7.179-7.038,0-8.8,6.692-8.845,6.98l-.211.85-1.707-.411.205-.856c0-.082,2.1-8.323,10.558-8.323,8.8,0,13,7.789,13.179,8.124l.411.774Z" transform="translate(-291.224 -231.875)" fill="#263238"/>
    </g>
  </g>
</svg>
